# xmcd CD database file generated by Grip 3.2.0
# 
# Track frame offsets:
#       150
#       18487
#       29847
#       45162
#       59472
#       75207
#       84285
#       97907
#       110480
#       124867
#       132887
#       143687
#       159842
#       181355
#       201592
#       219572
#       224720
#       236962
#       250550
#       260112
#       271190
#       286065
# 
# Disc length: 3911 seconds
# 
# Revision: 2
# Processed by: cddbd v1.5.2PL0 Copyright (c) Steve Scherf et al.
# Submitted via: Grip 3.2.0
# 
DISCID=3a0f4516
DTITLE=Floyd 'Red Crow' Westerman - Custer Died for Your Sins - The Land Is Y
DTITLE=our Mother
DYEAR=1991
DGENRE=Native American
TTITLE0=Custer Died for Your Sins
TTITLE1=Missionaries
TTITLE2=World Without Tomorrow
TTITLE3=Goin' Back
TTITLE4=35 More Miles
TTITLE5=Red, White and Black
TTITLE6=Where Were You When
TTITLE7=Here Come the Anthros
TTITLE8=They Didn't Listen
TTITLE9=Task Force
TTITLE10=B.I.A.
TTITLE11=How Long Have You Been Blind
TTITLE12=B.I.A. (2)
TTITLE13=Chante Waste Wi
TTITLE14=Quiet Desperation
TTITLE15=Rabbit Dance Song
TTITLE16=Sun, Moon and Tears
TTITLE17=Joseph
TTITLE18=Or Do You Care
TTITLE19=Wounded Knee
TTITLE20=The Land Is Your Mother
TTITLE21=Sioux Rabbit Song
EXTD=ARD Trikont Schallplatten GmbH 00170-2
EXTT0=
EXTT1=
EXTT2=
EXTT3=
EXTT4=
EXTT5=
EXTT6=
EXTT7=
EXTT8=
EXTT9=
EXTT10=
EXTT11=
EXTT12=
EXTT13=
EXTT14=
EXTT15=
EXTT16=
EXTT17=
EXTT18=
EXTT19=
EXTT20=
EXTT21=
PLAYORDER=
